<svg xmlns="http://www.w3.org/2000/svg">
  <symbol id="eye" viewBox="0 0 17 12" fill="none">
    <path d="M8.50004 7.68261C9.42054 7.68261 10.1667 6.93466 10.1667 6.01196C10.1667 5.08926 9.42054 4.34131 8.50004 4.34131C7.57954 4.34131 6.83337 5.08926 6.83337 6.01196C6.83337 6.93466 7.57954 7.68261 8.50004 7.68261Z" stroke="currentColor" stroke-linecap="round" stroke-linejoin="round"/>
    <path d="M16 6.01195C14.4262 8.51041 11.5986 11.0239 8.5 11.0239C5.40142 11.0239 2.5738 8.51041 1 6.01195C2.91546 3.63817 5.15969 1 8.5 1C11.8403 1 14.0846 3.63812 16 6.01195Z" stroke="currentColor" stroke-linecap="round" stroke-linejoin="round"/>
  </symbol>
  <symbol id="eye-crossed" viewBox="0 0 17 10" fill="none">
    <path d="M1 1C4 7.5 13 7.5 16 1" stroke="currentColor" stroke-linecap="round" stroke-linejoin="round"/>
    <path d="M13.3163 4.31738L16.0001 7.99988" stroke="currentColor" stroke-linecap="round" stroke-linejoin="round"/>
    <path d="M8.49988 5.875V9.5" stroke="currentColor" stroke-linecap="round" stroke-linejoin="round"/>
    <path d="M3.68383 4.31738L1 7.99988" stroke="currentColor" stroke-linecap="round" stroke-linejoin="round"/>
  </symbol>

  <symbol id="gear" viewBox="0 0 33 33" fill="none">
    <path d="M18.2849 31.7655H14.7765C13.8115 31.7655 13.0264 30.9807 13.0264 30.016V26.542C11.7843 26.1054 10.6148 25.4288 9.61189 24.567L6.59781 26.3066C6.33316 26.4588 6.03242 26.539 5.7275 26.539C5.10211 26.539 4.52048 26.2056 4.20963 25.6689L2.45412 22.6278C1.97349 21.7941 2.2605 20.7232 3.09381 20.2404L6.10642 18.5029C5.98376 17.8538 5.92163 17.1918 5.92163 16.5306C5.92163 15.8695 5.9837 15.2076 6.10642 14.5584L3.09452 12.8213C2.25844 12.3369 1.97156 11.2644 2.45431 10.4299L4.20937 7.39278C4.521 6.85479 5.10262 6.52092 5.72743 6.52092C6.03313 6.52092 6.33439 6.60194 6.59865 6.75521L9.61209 8.49196C10.616 7.63132 11.7857 6.9556 13.0264 6.51944V3.04542C13.0264 2.08068 13.8115 1.29584 14.7765 1.29584H18.285C19.2501 1.29584 20.0352 2.08068 20.0352 3.04542V6.51938C21.2819 6.95721 22.4517 7.63274 23.4501 8.49164L26.464 6.75457C26.7279 6.60188 27.0293 6.52092 27.3348 6.52092C27.9595 6.52092 28.5405 6.85511 28.851 7.39304L30.6073 10.4299C31.0892 11.2663 30.802 12.3387 29.9674 12.8212L26.955 14.5585C27.0768 15.2044 27.1384 15.8663 27.1384 16.5307C27.1384 17.2002 27.077 17.8622 26.9555 18.5031L29.9671 20.24C30.369 20.4703 30.6581 20.8458 30.7799 21.2969C30.9022 21.75 30.8411 22.2226 30.6076 22.6276L28.8523 25.6684C28.5412 26.2056 27.9598 26.539 27.3348 26.5391C27.03 26.5391 26.7292 26.4589 26.4648 26.3073L23.45 24.567C22.4475 25.4293 21.2778 26.1051 20.0353 26.5396V30.016C20.0352 30.9807 19.25 31.7655 18.2849 31.7655ZM9.66532 23.6045C9.77077 23.6045 9.87538 23.643 9.95704 23.7177C10.9975 24.6682 12.2536 25.3947 13.5895 25.8186C13.7691 25.8757 13.8911 26.0424 13.8911 26.2308V30.0161C13.8911 30.5039 14.2883 30.9009 14.7765 30.9009H18.2849C18.7732 30.9009 19.1704 30.504 19.1704 30.0161V26.2279C19.1704 26.0392 19.2928 25.8723 19.4727 25.8156C20.8089 25.3943 22.0647 24.6689 23.1042 23.7179C23.2434 23.5907 23.4489 23.5682 23.6123 23.6625L26.896 25.5579C27.0286 25.6339 27.1807 25.6745 27.3347 25.6745C27.6523 25.6744 27.9469 25.5063 28.1037 25.2357L29.8586 22.1957C29.9763 21.9913 30.0071 21.7522 29.9451 21.5226C29.8836 21.2949 29.7383 21.1058 29.5362 20.9899L26.253 19.0964C26.0894 19.002 26.0059 18.8123 26.0471 18.6279C26.1975 17.9523 26.2738 17.2467 26.2738 16.5308C26.2738 15.8216 26.1974 15.1157 26.0469 14.4329C26.0063 14.2487 26.0897 14.0594 26.253 13.9652L29.5351 12.0724C29.957 11.8286 30.1022 11.2856 29.8584 10.8624L28.1023 7.82578C27.9455 7.55424 27.6516 7.38582 27.3348 7.38582C27.1812 7.38582 27.0297 7.42655 26.8965 7.50358L23.6121 9.39656C23.4489 9.49067 23.2434 9.46811 23.1043 9.34088C22.07 8.39425 20.8141 7.6689 19.4721 7.24306C19.2926 7.18602 19.1705 7.01927 19.1705 6.83088V3.04548C19.1705 2.55764 18.7733 2.1606 18.285 2.1606H14.7765C14.2884 2.1606 13.8912 2.55757 13.8912 3.04548V6.83075C13.8912 7.01915 13.7692 7.18589 13.5896 7.24293C12.255 7.66632 10.9988 8.392 9.95659 9.34146C9.81756 9.46824 9.61247 9.49041 9.44954 9.3965L6.16578 7.50396C6.03217 7.42643 5.88096 7.38576 5.72743 7.38576C5.41007 7.38576 5.11513 7.55443 4.95786 7.82597L3.20293 10.8629C2.95872 11.285 3.10426 11.8277 3.52733 12.0728L6.80857 13.9651C6.97196 14.0594 7.05542 14.2486 7.01482 14.4328C6.86329 15.12 6.78653 15.8258 6.78653 16.5308C6.78653 17.2357 6.86335 17.9416 7.01482 18.6287C7.05542 18.8128 6.97196 19.0021 6.80863 19.0964L3.52668 20.9892C3.1058 21.233 2.9604 21.7745 3.20326 22.1958L4.95825 25.2362C5.11474 25.5062 5.40961 25.6744 5.72756 25.6744C5.88148 25.6744 6.0332 25.6339 6.16629 25.5575L9.44941 23.6625C9.51663 23.6234 9.5912 23.6045 9.66532 23.6045Z" fill="currentColor"/>
    <path d="M16.5316 21.77C13.6405 21.77 11.2883 19.4197 11.2883 16.5308C11.2883 13.6419 13.6405 11.2916 16.5316 11.2916C19.4219 11.2916 21.7732 13.6419 21.7732 16.5308C21.7732 19.4197 19.4219 21.77 16.5316 21.77ZM16.5316 12.1563C14.1173 12.1563 12.1531 14.1186 12.1531 16.5307C12.1531 18.9428 14.1173 20.9052 16.5316 20.9052C18.945 20.9052 20.9085 18.9428 20.9085 16.5307C20.9085 14.1186 18.9451 12.1563 16.5316 12.1563Z" fill="currentColor"/>
  </symbol>

  <symbol id="exit" viewBox="0 0 30 38" fill="none">
    <path d="M0 19C0 19.5246 0.419769 19.95 0.9375 19.95H17.4244L12.4622 24.9783C12.2864 25.1564 12.1876 25.398 12.1876 25.6499C12.1875 26.1745 12.6073 26.5999 13.125 26.6C13.3737 26.6002 13.6122 26.5002 13.7877 26.3217L20.3502 19.6717C20.3501 19.6718 20.3503 19.6716 20.3502 19.6717C20.7161 19.3007 20.7163 18.6992 20.3502 18.3284L13.7877 11.6784C13.4245 11.3229 12.8485 11.3229 12.4852 11.6784C12.1128 12.0429 12.1025 12.6443 12.4622 13.0217L17.4244 18.05H0.9375C0.419769 18.05 0 18.4754 0 19ZM25.3125 0H4.6875C2.09965 0.00243523 0.00240319 2.12764 0 4.75V12.35C0 12.8746 0.419769 13.3 0.9375 13.3C1.45523 13.3 1.875 12.8746 1.875 12.35V4.75C1.87672 3.17668 3.13488 1.90174 4.6875 1.9H25.3125C26.8651 1.90174 28.1233 3.17668 28.125 4.75V33.25C28.1233 34.8233 26.8651 36.0983 25.3125 36.1H4.6875C3.13488 36.0983 1.87672 34.8233 1.875 33.25V25.65C1.875 25.1254 1.45523 24.7 0.9375 24.7C0.419769 24.7 0 25.1254 0 25.65V33.25C0.00240319 35.8724 2.09965 37.9976 4.6875 38H25.3125C27.9004 37.9976 29.9976 35.8724 30 33.25V4.75C29.9976 2.12764 27.9004 0.00243523 25.3125 0Z" fill="currentColor"/>
  </symbol>
  <symbol id="trash-bin" viewBox="0 0 20 22" fill="none">
    <path fill-rule="evenodd" clip-rule="evenodd" d="M2.9292 6.9668V19.571C2.9292 19.9721 3.08883 20.3568 3.37298 20.6405C3.65712 20.9241 4.04251 21.0835 4.44435 21.0835H15.5555C15.9573 21.0835 16.3427 20.9241 16.6268 20.6405C16.911 20.3568 17.0706 19.9721 17.0706 19.571V6.9668H2.9292Z" stroke="currentColor"/>
    <path d="M5.95972 9.60641V18.0584M10.0001 9.60641V18.0584M14.0405 9.60641V18.0584M6.46477 3.32733V2.20211C6.46477 1.49227 7.0981 0.916748 7.87891 0.916748H12.1213C12.9021 0.916748 13.5355 1.49227 13.5355 2.20211V3.32836" stroke="currentColor" stroke-linecap="round"/>
    <path d="M17.5758 3.94165H2.42433C1.58754 3.94165 0.90918 4.61882 0.90918 5.45415C0.90918 6.28948 1.58754 6.96665 2.42433 6.96665H17.5758C18.4126 6.96665 19.091 6.28948 19.091 5.45415C19.091 4.61882 18.4126 3.94165 17.5758 3.94165Z" stroke="currentColor"/>
  </symbol>
  <symbol id="plus" viewBox="0 0 11 12" fill="none">
    <path d="M10.125 6.26709H5.73047V10.625H5.10791V6.26709H0.75V5.64453H5.10791V1.25H5.73047V5.64453H10.125V6.26709Z" fill="transparent" stroke="currentColor"/>
  </symbol>
  <symbol id="square-plus" viewBox="0 0 20 20" fill="none">
    <path d="M10 6.93921V13.045" stroke="currentColor" stroke-width="1.5" stroke-linecap="round" stroke-linejoin="round"/>
    <path d="M13.0558 9.9917H6.94409" stroke="currentColor" stroke-width="1.5" stroke-linecap="round" stroke-linejoin="round"/>
    <path fill-rule="evenodd" clip-rule="evenodd" d="M13.9048 1.66675H6.09532C3.3731 1.66675 1.66675 3.59348 1.66675 6.32105V13.6791C1.66675 16.4067 3.36516 18.3334 6.09532 18.3334H13.9048C16.635 18.3334 18.3334 16.4067 18.3334 13.6791V6.32105C18.3334 3.59348 16.635 1.66675 13.9048 1.66675Z" stroke="currentColor" stroke-width="1.5" stroke-linecap="round" stroke-linejoin="round"/>
    <defs>
      <clipPath id="clip0_463_909">
        <rect width="20" height="20" fill="currentColor"/>
      </clipPath>
    </defs>
  </symbol>
  <symbol id="pen" viewBox="0 0 15 15" fill="none">
    <path d="M7.5 12.5H13.125" stroke="currentColor" stroke-linecap="round" stroke-linejoin="round"/>
    <path d="M10.3125 2.1874C10.5611 1.93876 10.8984 1.79907 11.25 1.79907C11.4241 1.79907 11.5965 1.83337 11.7574 1.89999C11.9182 1.96662 12.0644 2.06428 12.1875 2.1874C12.3106 2.31051 12.4083 2.45667 12.4749 2.61753C12.5415 2.77838 12.5758 2.95079 12.5758 3.1249C12.5758 3.29901 12.5415 3.47141 12.4749 3.63227C12.4083 3.79313 12.3106 3.93928 12.1875 4.0624L4.375 11.8749L1.875 12.4999L2.5 9.9999L10.3125 2.1874Z" stroke="currentColor" stroke-linecap="round" stroke-linejoin="round"/>
  </symbol>
  <symbol id="check" viewBox="0 0 10 8" fill="none">
    <path d="M0.625 4.875L2.5 6.75L8.75 0.5" stroke="currentColor" stroke-linecap="round" stroke-linejoin="round"/>
  </symbol>
  <symbol id="magic-wand" viewBox="0 0 20 20" fill="none">
    <path d="M0 6H4V7H0V6Z" fill="#404043"/>
    <path d="M6 0H7V4H6V0Z" fill="#404043"/>
    <path d="M7 14H6V11L7 12.2V14Z" fill="#404043"/>
    <path d="M14 7H12.2L11 6H14V7Z" fill="#404043"/>
    <path d="M4.03862 9L5 9.96138L0.961381 14L0 13.0386L4.03862 9Z" fill="#404043"/>
    <path d="M13.0386 0L14 0.961381L9.96138 5L9 4.03862L13.0386 0Z" fill="#404043"/>
    <path d="M0.847315 0L5 4.15268L4.15268 5L0 0.847315L0.847315 0Z" fill="#404043"/>
    <path d="M7.625 5L5 7.52101L17.25 20L20 17.3529L7.625 5ZM7.625 6.76471L18.5 17.5L17.5 18.5L6.75 7.52101L7.625 6.76471Z" fill="#404043"/>
    <defs>
      <clipPath id="clip0_347_277">
        <rect width="20" height="20" fill="white"/>
      </clipPath>
    </defs>
  </symbol>
  <symbol id="logo" viewBox="0 0 57 57" fill="none">
    <path d="M46.3884 19.8697C48.5409 22.4743 49.3635 26.0084 48.8585 29.8087C48.3035 33.9848 46.145 38.4235 42.4727 42.0958C35.3882 49.1803 25.7198 50.4382 20.2576 45.9299C26.7737 39.4467 28.2947 37.9424 29.0654 37.1801C29.8558 36.3984 29.857 36.3972 33.6488 32.6055C36.6755 29.5787 37.2925 28.9729 37.7895 28.4848C38.5172 27.7703 38.9877 27.3084 46.3884 19.8697Z" stroke="currentColor" stroke-width="2"/>
    <path d="M11.0258 36.6988C8.87328 34.0943 8.05068 30.5601 8.55569 26.7599C9.11065 22.5838 11.2691 18.1451 14.9415 14.4727C22.026 7.38822 31.6944 6.1303 37.1566 10.6386C30.6405 17.1219 29.1195 18.6262 28.3488 19.3884C27.5584 20.1702 27.5572 20.1713 23.7654 23.9631C20.7387 26.9898 20.1217 27.5957 19.6247 28.0837C18.8969 28.7982 18.4265 29.2602 11.0258 36.6988Z" stroke="currentColor" stroke-width="2"/>
    <rect x="40.0209" y="13.435" width="6" height="37" transform="rotate(45 40.0209 13.435)" stroke="currentColor" stroke-width="2"/>
  </symbol>
  <symbol id="monitor" viewBox="0 0 58 47" fill="none">
    <path d="M52.7272 3.22342e-05H5.27287C4.57974 -0.00238386 3.89299 0.131046 3.25216 0.392636C2.61133 0.654225 2.02908 1.03881 1.53897 1.52422C1.04886 2.00964 0.660555 2.5863 0.396434 3.22099C0.132314 3.85568 -0.00240693 4.53586 3.2546e-05 5.22234V36.5554C-0.000178372 37.2412 0.136064 37.9204 0.400974 38.5541C0.665884 39.1878 1.05427 39.7636 1.54394 40.2486C2.03361 40.7336 2.68379 40.8874 3.32362 41.1497C3.82708 41.1497 4.64496 41.1499 5.33746 41.1497H18.4548V47H39.5453V41.1497H52.6626C54.0571 41.1447 55.4571 41.22 56.4406 40.2409C57.4242 39.2619 57.9754 37.9365 57.9735 36.5554L58 5.22234C58.0002 4.53648 57.864 3.8573 57.5991 3.2236C57.3341 2.58991 56.9458 2.01412 56.4561 1.52914C55.9664 1.04417 55.3851 0.659503 54.7452 0.397131C54.1054 0.13476 53.4197 -0.000176663 52.7272 3.22342e-05ZM55.1799 38.1244H2.82016V2.8284H55.1799V38.1244Z" fill="#BFFF5A"/>
  </symbol>
  <symbol id="cross" viewBox="0 0 12 12" fill="none">
    <path d="M11.6762 1.06959L6.70438 6.04143L11.6348 10.9718L10.9304 11.6762L6.00003 6.74578L1.06962 11.6762L0.365277 10.9718L5.29569 6.04143L0.323845 1.06959L1.02819 0.365243L6.00003 5.33709L10.9719 0.365243L11.6762 1.06959Z" fill="currentColor"/>
  </symbol>
  <symbol id="cross-circle" viewBox="0 0 10 10" fill="none">
    <path d="M4.99998 9.16683C7.30117 9.16683 9.16665 7.30135 9.16665 5.00016C9.16665 2.69898 7.30117 0.833496 4.99998 0.833496C2.69879 0.833496 0.833313 2.69898 0.833313 5.00016C0.833313 7.30135 2.69879 9.16683 4.99998 9.16683Z" stroke="currentColor" stroke-linecap="round" stroke-linejoin="round"/>
    <path d="M6.25 3.75L3.75 6.25" stroke="currentColor" stroke-linecap="round" stroke-linejoin="round"/>
    <path d="M3.75 3.75L6.25 6.25" stroke="currentColor" stroke-linecap="round" stroke-linejoin="round"/>
    <defs>
      <clipPath id="clip0_376_820">
        <rect width="10" height="10" fill="white"/>
      </clipPath>
    </defs>
  </symbol>

  <symbol id="chevron-down" viewBox="0 0 12 8">
    <path d="M2.11973 1.29006L5.99973 5.17006L9.87973 1.29006C10.2697 0.900059 10.8997 0.900059 11.2897 1.29006C11.6797 1.68006 11.6797 2.31006 11.2897 2.70006L6.69973 7.29006C6.30973 7.68006 5.67973 7.68006 5.28973 7.29006L0.699727 2.70006C0.309727 2.31006 0.309727 1.68006 0.699727 1.29006C1.08973 0.910059 1.72973 0.900059 2.11973 1.29006Z" fill="currentColor" />
  </symbol>
  <symbol id="arrow-up" viewBox="0 0 15 9" fill="none">
    <path d="M0.135938 7.84158L0.220312 7.7431L6.59531 0.403336C6.81094 0.154769 7.13437 0 7.49531 0C7.85625 0 8.17969 0.159459 8.39531 0.403336L14.7656 7.72903L14.8734 7.85096C14.9531 7.96821 15 8.10891 15 8.25899C15 8.66701 14.6531 9 14.2219 9H0.778125C0.346875 9 0 8.66701 0 8.25899C0 8.10422 0.0515626 7.95883 0.135938 7.84158Z" fill="white"/>
  </symbol>
  <symbol id="list-add" viewBox="0 0 20 18" fill="none">
    <line x1="1.5" y1="8.5" x2="9.5" y2="8.5" stroke="currentColor" stroke-linecap="round"/>
    <line x1="1.5" y1="16.5" x2="7.5" y2="16.5" stroke="currentColor" stroke-linecap="round"/>
    <line x1="10.5" y1="12.5" x2="18.5" y2="12.5" stroke="currentColor" stroke-linecap="round"/>
    <line x1="1.5" y1="1.5" x2="16.5" y2="1.5" stroke="currentColor" stroke-linecap="round"/>
    <line x1="14.5" y1="8.5" x2="14.5" y2="16.5" stroke="currentColor" stroke-linecap="round"/>
  </symbol>
  <symbol xmlns="http://www.w3.org/2000/svg" id="touch" viewBox="0 0 16 21">
    <path d="M4.79 8.24V4.5C4.79 3.12 5.91 2 7.29 2C8.67 2 9.79 3.12 9.79 4.5V8.24C11 7.43 11.79 6.06 11.79 4.5C11.79 2.01 9.78 0 7.29 0C4.8 0 2.79 2.01 2.79 4.5C2.79 6.06 3.58 7.43 4.79 8.24ZM10.29 10.71C10.01 10.57 9.71 10.5 9.4 10.5H8.79V4.5C8.79 3.67 8.12 3 7.29 3C6.46 3 5.79 3.67 5.79 4.5V15.24L2.35 14.52C1.98 14.44 1.59 14.56 1.32 14.83C0.889998 15.27 0.889998 15.97 1.32 16.41L5.33 20.42C5.71 20.79 6.22 21 6.75 21H12.85C13.85 21 14.69 20.27 14.83 19.28L15.46 14.81C15.58 13.96 15.14 13.12 14.37 12.74L10.29 10.71Z" fill="#9699A5"/>
  </symbol>
</svg>
